<?xml version="1.0" encoding="utf-8"?>
<!-- Generator: Adobe Illustrator 24.1.2, SVG Export Plug-In . SVG Version: 6.00 Build 0)  -->
<svg version="1.1" xmlns="http://www.w3.org/2000/svg" xmlns:xlink="http://www.w3.org/1999/xlink" x="0px" y="0px"
	 viewBox="0 0 595.3 453.4" style="enable-background:new 0 0 595.3 453.4;" xml:space="preserve">
<style type="text/css">
	.st0{fill:#908F90;}
	.st1{fill:#020304;stroke:#020304;stroke-miterlimit:10;}
	.st2{fill:#E52421;stroke:#000000;stroke-miterlimit:10;}
	.st3{fill:none;stroke:#020304;stroke-miterlimit:10;}
	.st4{fill:#E5231E;}
	.st5{fill:#E52421;}
	.st6{fill:#020304;}
	.st7{fill:#FFFEFE;stroke:#FFFEFE;stroke-miterlimit:10;}
	.st8{fill:#F8F7F7;stroke:#F8F7F7;stroke-miterlimit:10;}
	.st9{fill:#010202;}
	.st10{fill:none;}
	.st11{fill:none;stroke:#000000;stroke-miterlimit:10;}
	.st12{stroke:#000000;stroke-miterlimit:10;}
</style>
<g id="Layer_2">
	<g>
		<path class="st0" d="M140.2,367.4c-10.8-2.9-21.7,2.7-32.5,5.5c-25.2,6.7-51.6-2-76.2-10.6c-7.8-2.7-15.9-5.6-22-11.3
			c-6.1-5.7-9.5-15-6-22.5c4-8.6,14.7-11.3,24-12.9c127.6-22.3,257.6-30.9,387-25.6c18.7,0.8,37.5,1.8,55.8,5.4
			c20,3.9,39.4,10.9,59.7,13.1c9.3,1,18.7,1,27.6,3.8s17.4,9.2,19.5,18.3c2.3,9.9-3.8,20.3-12.3,25.9c-8.5,5.6-19,7.3-29.1,8.3
			c-25.6,2.6-51.5,1.7-76.8,6.1c-20.9,3.7-41.2,10.9-62.2,14.1c-20.5,3.1-41.6,2.1-62,5.8c-21.3,3.9-41.4,12.7-62,19.4
			c-33.1,10.7-67.6,15.9-102,21c-7.3,1.1-15.4,2-21.3-2.4c-8.9-6.6-7.2-20.1-5.4-31c1.8-10.9,0.6-25.4-10-28.7"/>
	</g>
</g>
<g id="Layer_1">
	<path class="st1" d="M296.9,133.8h16.9c0,0,6,142,12.3,142c-14.3,0-39.8,0-39.8,0S295.7,231,296.9,133.8z"/>
	<path class="st2" d="M371.3,248c1.6,1.7,5.1,4.4,15.4,4.9s43.5,0,45,0s12.7-0.9,17.5-4.6c0.8-0.3-7.8,0.3-11.9-1.1
		c-4.2-1.4-8.5-4.3-8.5-4.3h-38.8c0,0-4.3,3.3-7.1,4.2C380.4,247.8,371.3,248,371.3,248z"/>
	<rect x="298.4" y="94.1" class="st1" width="15.3" height="11.7"/>
	<rect x="301.7" y="64.9" class="st3" width="8.5" height="17.1"/>
	<path class="st4" d="M298.4,93.8c0,0,3-3.1,3.3-3.6c0.3-0.5,0-8.3,0-8.3h8.5v8.7l3.6,3.2H298.4z"/>
	<path class="st2" d="M309,106.7h-6l-15.9,12.6l16.9,13.4l4-0.2l16-13.2L309,106.7z M306,128l-10.3-9.1l10.3-8.3l8.9,8.3L306,128z"
		/>
	<path class="st2" d="M366.3,270c1.8,1.9,5.7,4.9,17.2,5.5s48.7,0,50.4,0s14.3-1,19.6-5.2c0.9-0.4-8.7,0.3-13.3-1.2
		c-6.1-2-8.2-3.8-9.9-4.9h-41c0,0-6.9,3.8-10,4.7C376.6,269.8,366.3,270,366.3,270z"/>
	<path class="st2" d="M364.1,294.1c1.9,1.9,6,4.9,17.9,5.5s50.5,0,52.3,0s14.8-1,20.4-5.2c1-0.4-9,0.4-13.8-1.2
		c-4.8-1.6-7.4-5.3-7.4-5.3l-47.5,0.4c0,0-5,3.8-8.3,4.7C374.7,294,364.1,294.1,364.1,294.1z"/>
	<polygon class="st3" points="297.6,105.8 278.9,120.5 296.9,133.8 314.3,133.6 332.1,120.5 314.3,105.8 	"/>
	<path class="st1" d="M266.9,276c-0.3-0.6,77.4,0,77.4,0s-12.6,18.3-18.4,19.6s-41.4,0-41.4,0S272.3,289,266.9,276z"/>
	<path class="st5" d="M276.9,275.2c0,0,15.1,21.5,16.6,21.6c1.5,0,26.2,0.2,26.2,0.2s19.1-21.4,17-21.4c-1.8,0-8.2,0.2-10.5-0.4
		c-0.8-0.2-11.6,21.4-20.3,20.1c-8.8-1.4-20-20.1-20-20.1L276.9,275.2z"/>
	<rect x="276.4" y="296.2" class="st6" width="59.4" height="16"/>
	<rect x="276.4" y="312.2" class="st6" width="9.7" height="8"/>
	<rect x="113.4" y="221.7" class="st1" width="9.7" height="9.7"/>
	<rect x="81.5" y="259.2" class="st1" width="14" height="12.3"/>
	<rect x="210.6" y="259.2" class="st1" width="12.3" height="12.3"/>
	<rect x="183.2" y="221.7" class="st1" width="9.7" height="9.7"/>
	<rect x="293.5" y="312.2" class="st5" width="8.2" height="8"/>
	<rect x="326" y="312.2" class="st6" width="9.9" height="8"/>
	<rect x="302" y="312.2" class="st7" width="6.9" height="8"/>
	<rect x="318.8" y="312.2" class="st7" width="6.9" height="8"/>
	<rect x="308.8" y="311.1" class="st5" width="9.9" height="8.9"/>
	<rect x="286.1" y="312.5" class="st8" width="7.3" height="8"/>
	<polygon class="st9" points="142.6,196 142.6,200.5 164.4,200.5 164.4,196 153.5,190.9 	"/>
	<path class="st5" d="M76.1,212.3c2.4,2.4,19.4,9.5,28.3,9.2s104.9,0.7,105.9,0c1-0.7,14-4.8,20.4-9.2c-24.9,0-47.3-1-67.7-13.6
		c-20.1,1-20.1,1-20.1,1s-23.1,11.9-41.5,12.6C82.9,212.9,76.1,212.3,76.1,212.3z"/>
	<path class="st3" d="M125.4,221.7c-0.1,0.4,0,10.1,0,10.1h56.3v-9.4L125.4,221.7z"/>
	<path class="st3" d="M132.6,231.5c0.5-0.4,9.7-9.6,9.7-9.6l22.1,0.3l10.2,10L132.6,231.5z"/>
	<polygon class="st3" points="144.6,231.4 152,222 155.4,222.1 162.9,231.4 	"/>
	<polygon class="st3" points="125.4,228 132.6,221.9 176.3,222.3 181.7,227.5 181.7,231.8 125.4,231.8 	"/>
	<path class="st3" d="M97.2,231.8c-0.4,0.4,0,14,0,14h113.4v-13.4L97.2,231.8z"/>
	<path class="st1" d="M98.7,241.7v4.2c0,0,111.2,0.6,110.9,0c-0.3-0.6,0-4.2,0-4.2H98.7z"/>
	<path class="st6" d="M103.5,239.7h-2.6l0.3-2.6c0-0.7,0.6-1.3,1.3-1.3h0.9V239.7z"/>
	<path class="st6" d="M109,235.9L109,235.9c0.7,0,1.3,0.6,1.3,1.3v1.3c0,0.7-0.6,1.3-1.3,1.3h0c-0.7,0-1.3-0.6-1.3-1.3v-1.3
		C107.8,236.5,108.3,235.9,109,235.9z"/>
	<path class="st6" d="M115.3,235.9L115.3,235.9c0.7,0,1.3,0.6,1.3,1.3v1.3c0,0.7-0.6,1.3-1.3,1.3h0c-0.7,0-1.3-0.6-1.3-1.3v-1.3
		C114,236.5,114.6,235.9,115.3,235.9z"/>
	
		<rect x="120.5" y="235.9" transform="matrix(-1 -1.224647e-16 1.224647e-16 -1 243.5866 475.6582)" class="st6" width="2.6" height="3.8"/>
	<path class="st6" d="M128,235.9L128,235.9c0.7,0,1.3,0.6,1.3,1.3v1.3c0,0.7-0.6,1.3-1.3,1.3h0c-0.7,0-1.3-0.6-1.3-1.3v-1.3
		C126.8,236.5,127.3,235.9,128,235.9z"/>
	<path class="st6" d="M134.6,235.7L134.6,235.7c0.7,0,1.3,0.6,1.3,1.3v1.3c0,0.7-0.6,1.3-1.3,1.3l0,0c-0.7,0-1.3-0.6-1.3-1.3V237
		C133.3,236.3,133.9,235.7,134.6,235.7z"/>
	
		<rect x="139.4" y="235.7" transform="matrix(-1 -1.224647e-16 1.224647e-16 -1 281.2888 475.3177)" class="st6" width="2.6" height="3.8"/>
	<path class="st6" d="M146.8,235.7L146.8,235.7c0.7,0,1.3,0.6,1.3,1.3v1.3c0,0.7-0.6,1.3-1.3,1.3h0c-0.7,0-1.3-0.6-1.3-1.3V237
		C145.5,236.3,146.1,235.7,146.8,235.7z"/>
	
		<rect x="159.7" y="235.7" transform="matrix(-1 -1.224647e-16 1.224647e-16 -1 321.8845 475.3177)" class="st6" width="2.6" height="3.8"/>
	
		<rect x="166.2" y="235.7" transform="matrix(-1 -1.224647e-16 1.224647e-16 -1 334.9058 475.3177)" class="st6" width="2.6" height="3.8"/>
	
		<rect x="172.6" y="235.7" transform="matrix(-1 -1.224647e-16 1.224647e-16 -1 347.6718 475.3177)" class="st6" width="2.6" height="3.8"/>
	
		<rect x="178.8" y="235.7" transform="matrix(-1 -1.224647e-16 1.224647e-16 -1 360.0973 475.3177)" class="st6" width="2.6" height="3.8"/>
	
		<rect x="185.5" y="235.7" transform="matrix(-1 -1.224647e-16 1.224647e-16 -1 373.6292 475.3177)" class="st6" width="2.6" height="3.8"/>
	
		<rect x="191.3" y="235.7" transform="matrix(-1 -1.224647e-16 1.224647e-16 -1 385.2037 475.3177)" class="st6" width="2.6" height="3.8"/>
	
		<rect x="197.9" y="235.5" transform="matrix(-1 -1.224647e-16 1.224647e-16 -1 398.31 474.8071)" class="st6" width="2.6" height="3.8"/>
	
		<rect x="204" y="235.7" transform="matrix(-1 -1.224647e-16 1.224647e-16 -1 410.4803 475.3177)" class="st6" width="2.6" height="3.8"/>
	<path class="st6" d="M151.5,235.7h3.6c0.7,0,1.3,0.6,1.3,1.3v1.3c0,0.7-0.6,1.3-1.3,1.3h-3.6V235.7z"/>
	<path class="st5" d="M48.2,251.4c-4.6-0.3,29.1,9.2,70,7.8c41.6,0.3,120.3,0.2,120.3,0.2s18.4-4,20.4-8c-7.1,0.3-44-2.3-46.6-5.2
		c-2.6-0.3-115.1-0.3-115.1-0.3S72,253.1,48.2,251.4z"/>
	<polygon class="st3" points="103.5,271.5 95.5,271.5 97,265.2 103.5,259.2 116,259.3 	"/>
	<polygon class="st3" points="114.9,271.5 125.4,271.5 135.5,259.6 123.1,259.6 	"/>
	<path class="st3" d="M137.4,271.5l10.3-12.3h12l10.7,12.3h-10.7l-5.5-7c0,0-6.7,6.6-6.5,7C147.9,271.9,137.4,271.5,137.4,271.5z"/>
	<polygon class="st3" points="170.4,259.5 183.2,271.6 192.9,271.5 181.7,259.5 	"/>
	<polygon class="st3" points="193.9,259.5 205.2,271.5 210.6,271.5 209.7,265.6 205.2,259.5 	"/>
	<rect x="67.2" y="271.5" class="st3" width="174" height="8.2"/>
	<rect x="67.2" y="279.7" class="st1" width="174" height="6.3"/>
	<rect x="76.3" y="274.6" class="st6" width="2.4" height="4.3"/>
	<rect x="82.9" y="274.6" class="st6" width="2.4" height="4.3"/>
	<rect x="89.2" y="274.6" class="st6" width="2.4" height="4.3"/>
	<rect x="95.5" y="274.6" class="st6" width="2.4" height="4.3"/>
	<rect x="101.9" y="274.6" class="st6" width="2.4" height="4.3"/>
	<rect x="108" y="274.5" class="st6" width="2.4" height="4.3"/>
	<rect x="114.7" y="274.6" class="st6" width="2.4" height="4.3"/>
	<rect x="120.8" y="274.6" class="st6" width="2.4" height="4.3"/>
	<rect x="127.6" y="274.6" class="st6" width="2.4" height="4.3"/>
	<rect x="133.7" y="274.6" class="st6" width="2.4" height="4.3"/>
	<rect x="139.8" y="274.6" class="st6" width="2.4" height="4.3"/>
	<rect x="146.6" y="274.6" class="st6" width="2.4" height="4.3"/>
	<rect x="152.6" y="274.6" class="st6" width="2.4" height="4.3"/>
	<rect x="159" y="274.6" class="st6" width="2.4" height="4.3"/>
	<rect x="165.3" y="274.7" class="st6" width="2.4" height="4.3"/>
	<rect x="172.1" y="274.6" class="st6" width="2.4" height="4.3"/>
	<rect x="178.1" y="274.6" class="st6" width="2.4" height="4.3"/>
	<rect x="184.2" y="274.6" class="st6" width="2.4" height="4.3"/>
	<rect x="191" y="274.6" class="st6" width="2.4" height="4.3"/>
	<rect x="197" y="274.6" class="st6" width="2.4" height="4.3"/>
	<rect x="203.1" y="274.6" class="st6" width="2.4" height="4.3"/>
	<rect x="209.9" y="274.6" class="st6" width="2.4" height="4.3"/>
	<rect x="215.9" y="274.6" class="st6" width="2.4" height="4.3"/>
	<rect x="222.2" y="274.6" class="st6" width="2.4" height="4.3"/>
	<rect x="228.9" y="274.6" class="st6" width="2.4" height="4.3"/>
	<g>
		<rect x="70" y="274.6" class="st6" width="2.4" height="4.3"/>
		<rect x="235.3" y="274.6" class="st6" width="2.4" height="4.3"/>
	</g>
	<rect x="76.7" y="311.3" class="st6" width="2.4" height="4.3"/>
	<rect x="83.3" y="311.3" class="st6" width="2.4" height="4.3"/>
	<rect x="89.6" y="311.3" class="st6" width="2.4" height="4.3"/>
	<rect x="95.9" y="311.3" class="st6" width="2.4" height="4.3"/>
	<rect x="102.3" y="311.3" class="st6" width="2.4" height="4.3"/>
	<rect x="108.4" y="311.2" class="st6" width="2.4" height="4.3"/>
	<rect x="115.1" y="311.3" class="st6" width="2.4" height="4.3"/>
	<rect x="121.1" y="311.3" class="st6" width="2.4" height="4.3"/>
	<rect x="128" y="311.3" class="st6" width="2.4" height="4.3"/>
	<rect x="134.1" y="311.3" class="st6" width="2.4" height="4.3"/>
	<rect x="140.2" y="311.3" class="st6" width="2.4" height="4.3"/>
	<rect x="147" y="311.3" class="st6" width="2.4" height="4.3"/>
	<rect x="153" y="311.3" class="st6" width="2.4" height="4.3"/>
	<rect x="159.4" y="311.3" class="st6" width="2.4" height="4.3"/>
	<rect x="165.7" y="311.4" class="st6" width="2.4" height="4.3"/>
	<rect x="172.5" y="311.3" class="st6" width="2.4" height="4.3"/>
	<rect x="178.5" y="311.3" class="st6" width="2.4" height="4.3"/>
	<rect x="184.6" y="311.3" class="st6" width="2.4" height="4.3"/>
	<rect x="191.4" y="311.3" class="st6" width="2.4" height="4.3"/>
	<rect x="197.4" y="311.3" class="st6" width="2.4" height="4.3"/>
	<rect x="203.5" y="311.3" class="st6" width="2.4" height="4.3"/>
	<rect x="210.3" y="311.3" class="st6" width="2.4" height="4.3"/>
	<rect x="216.3" y="311.3" class="st6" width="2.4" height="4.3"/>
	<rect x="222.6" y="311.3" class="st6" width="2.4" height="4.3"/>
	<rect x="229.3" y="311.3" class="st6" width="2.4" height="4.3"/>
	<g>
		<rect x="70.4" y="311.3" class="st6" width="2.4" height="4.3"/>
		<rect x="235.7" y="311.3" class="st6" width="2.4" height="4.3"/>
	</g>
	<path class="st6" d="M30.9,280.9l35.7,0.6c0,0,1.2,5,3.3,6.6s6.3,4.7,6.3,4.7H24.2c0,0,4.5-2.1,5.1-4.1
		C30.3,286,30.9,280.9,30.9,280.9z"/>
	<rect x="32.2" y="292.9" class="st3" width="35" height="27.2"/>
	<rect x="31.7" y="313.4" class="st3" width="35.5" height="6.6"/>
	<rect x="31.7" y="307.5" class="st1" width="35.5" height="5.9"/>
	<rect x="67.5" y="316.7" class="st1" width="174.5" height="3.7"/>
	<rect x="66.5" y="307.5" class="st3" width="174.5" height="9.2"/>
	<rect x="31.7" y="292.9" class="st3" width="35.5" height="3.7"/>
	<polygon class="st3" points="68.9,307.5 224.6,307.5 222.9,286 67.2,286 67.2,307.5 	"/>
	<rect x="84.1" y="286" class="st6" width="12.9" height="21.6"/>
	<rect x="108.6" y="286" class="st6" width="12.9" height="21.6"/>
	<rect x="134.5" y="286" class="st6" width="12.9" height="21.6"/>
	<rect x="159.7" y="286" class="st6" width="12.9" height="21.6"/>
	<rect x="185.7" y="286" class="st6" width="12.9" height="21.6"/>
	<rect x="211" y="286" class="st6" width="12.9" height="21.6"/>
	<line class="st3" x1="409.7" y1="146.2" x2="409.7" y2="189.1"/>
	<line class="st3" x1="306" y1="44.8" x2="306" y2="64.9"/>
	<line class="st3" x1="306" y1="32.3" x2="306" y2="40.1"/>
	<line class="st3" x1="407.4" y1="162" x2="412.3" y2="162"/>
	<line class="st3" x1="407.2" y1="166.5" x2="412.6" y2="166.4"/>
	<line class="st3" x1="406.6" y1="171" x2="413" y2="170.9"/>
	<line class="st3" x1="406.5" y1="176.2" x2="413.2" y2="176.1"/>
	<line class="st3" x1="406.5" y1="180.2" x2="413.3" y2="180.1"/>
	<line class="st3" x1="406.6" y1="184.9" x2="413.4" y2="184.8"/>
	<rect x="405.3" y="188.7" class="st1" width="8.9" height="5.1"/>
	<path class="st2" d="M377.7,210.9c0.9,1,3.8,4.3,11.2,4.6c7.4,0.3,44.3,0,44.3,0s7.3-1.1,8.8-4.6c-0.6-0.4-8.7-0.1-9.8-0.5
		s-17.9-16.6-17.9-16.6h-8.9c0,0-15.1,15.9-17.2,16.4C386.1,210.6,377.7,210.9,377.7,210.9z"/>
	<rect x="392.7" y="215.6" class="st1" width="34.3" height="7.5"/>
	<rect x="390.4" y="234.6" class="st1" width="38.4" height="8.2"/>
	<rect x="389.4" y="253.1" class="st1" width="41" height="11.1"/>
	<rect x="385.4" y="275.7" class="st1" width="47.9" height="12.2"/>
	<rect x="383" y="300.3" class="st3" width="52" height="21.2"/>
	<line class="st3" x1="388.9" y1="209.7" x2="388.9" y2="215.5"/>
	<line class="st3" x1="384.5" y1="228.3" x2="384.4" y2="233.3"/>
	<line class="st3" x1="380.2" y1="247.6" x2="380.1" y2="252.5"/>
	<line class="st3" x1="375" y1="270" x2="375" y2="274.4"/>
	<line class="st3" x1="384.5" y1="246.5" x2="384.4" y2="252.7"/>
	<line class="st3" x1="380" y1="268.7" x2="380" y2="274.8"/>
	<line class="st3" x1="444.5" y1="269.9" x2="444.5" y2="274"/>
	<line class="st3" x1="439.6" y1="269.2" x2="439.6" y2="275.4"/>
	<line class="st3" x1="389" y1="243.7" x2="388.9" y2="253"/>
	<line class="st3" x1="385.4" y1="266.2" x2="385.4" y2="275.7"/>
	<line class="st3" x1="435" y1="267" x2="434.9" y2="275.7"/>
	<line class="st3" x1="389.4" y1="264.2" x2="389.3" y2="275.7"/>
	<line class="st3" x1="393.6" y1="264.2" x2="393.5" y2="275.8"/>
	<line class="st3" x1="398.2" y1="264.3" x2="398.1" y2="275.8"/>
	<line class="st3" x1="402.5" y1="264.3" x2="402.4" y2="275.8"/>
	<line class="st3" x1="407.3" y1="264.2" x2="407.2" y2="275.7"/>
	<line class="st3" x1="411.5" y1="264.2" x2="411.4" y2="275.8"/>
	<line class="st3" x1="416.5" y1="264.4" x2="416.4" y2="275.9"/>
	<line class="st3" x1="421" y1="264.2" x2="420.9" y2="275.7"/>
	<line class="st3" x1="425.7" y1="264.2" x2="425.6" y2="275.7"/>
	<line class="st3" x1="430.3" y1="263.6" x2="430.2" y2="275.1"/>
	<line class="st3" x1="372.8" y1="293.8" x2="372.8" y2="298.2"/>
	<line class="st3" x1="376.2" y1="293.1" x2="376.2" y2="299.3"/>
	<line class="st3" x1="440.7" y1="293.4" x2="440.7" y2="299"/>
	<path class="st2" d="M374.2,228.8c1.5,1.7,4.7,4.4,14.2,4.9s40.1,0,41.5,0c1.4,0,11.7-0.9,16.1-4.6c0.8-0.3-7.1,0.3-11-1.1
		c-3.8-1.4-7.1-4.3-7.1-4.3h-36.4c0,0-4,3.3-6.6,4.2C382.6,228.6,374.2,228.8,374.2,228.8z"/>
	<line class="st3" x1="435.9" y1="291" x2="435.8" y2="299.4"/>
	<line class="st3" x1="380.7" y1="291.8" x2="380.6" y2="299.9"/>
	<line class="st3" x1="431.8" y1="288.2" x2="431.8" y2="299.9"/>
	<line class="st3" x1="385.6" y1="288.6" x2="385.5" y2="300.1"/>
	<line class="st3" x1="389.8" y1="288.6" x2="389.7" y2="300.2"/>
	<line class="st3" x1="394.4" y1="288.6" x2="394.3" y2="300.2"/>
	<line class="st3" x1="398.7" y1="288.6" x2="398.6" y2="300.2"/>
	<line class="st3" x1="403.5" y1="288.6" x2="403.4" y2="300.1"/>
	<line class="st3" x1="407.7" y1="288.6" x2="407.6" y2="300.2"/>
	<line class="st3" x1="412.7" y1="288.8" x2="412.6" y2="300.3"/>
	<line class="st3" x1="417.2" y1="288.6" x2="417.1" y2="300.1"/>
	<line class="st3" x1="421.9" y1="288.6" x2="421.8" y2="300.1"/>
	<line class="st3" x1="426.5" y1="287.9" x2="426.4" y2="299.5"/>
	<line class="st3" x1="398.2" y1="243.3" x2="398.1" y2="253.5"/>
	<line class="st3" x1="393.2" y1="243.3" x2="393.1" y2="253.6"/>
	<line class="st3" x1="403.3" y1="243.2" x2="403.2" y2="253.4"/>
	<line class="st3" x1="407.6" y1="242.8" x2="407.5" y2="253.1"/>
	<line class="st3" x1="412.2" y1="242.8" x2="412.1" y2="253.1"/>
	<line class="st3" x1="416.7" y1="242.8" x2="416.6" y2="253"/>
	<line class="st3" x1="421.2" y1="242.7" x2="421.1" y2="252.9"/>
	<line class="st3" x1="426.4" y1="242.8" x2="426.4" y2="253"/>
	<line class="st3" x1="430.4" y1="244.1" x2="430.4" y2="252.5"/>
	<line class="st3" x1="435.3" y1="246.1" x2="435.2" y2="253.1"/>
	<line class="st3" x1="439.6" y1="247.9" x2="439.6" y2="251.9"/>
	<line class="st3" x1="389.4" y1="225.8" x2="389.4" y2="233.7"/>
	<line class="st3" x1="383.8" y1="227.9" x2="383.8" y2="233.2"/>
	<line class="st3" x1="393.6" y1="223.6" x2="393.5" y2="233.8"/>
	<line class="st3" x1="398.2" y1="223.7" x2="398.1" y2="233.9"/>
	<line class="st3" x1="402.9" y1="223.6" x2="402.8" y2="233.8"/>
	<line class="st3" x1="407.6" y1="223.7" x2="407.5" y2="233.9"/>
	<line class="st3" x1="412.2" y1="223.6" x2="412.1" y2="233.8"/>
	<line class="st3" x1="416.7" y1="223.6" x2="416.6" y2="233.8"/>
	<line class="st3" x1="421.2" y1="223.8" x2="421.1" y2="234"/>
	<line class="st3" x1="425.7" y1="223.8" x2="425.6" y2="234.1"/>
	<line class="st3" x1="430.6" y1="225.7" x2="430.5" y2="233.9"/>
	<line class="st3" x1="435.3" y1="228.3" x2="435.2" y2="233.4"/>
	<line class="st3" x1="431" y1="209.7" x2="430.9" y2="215.5"/>
	<line class="st3" x1="394" y1="205.2" x2="393.8" y2="215.6"/>
	<line class="st3" x1="426.4" y1="205.2" x2="426.4" y2="215.6"/>
	<line class="st3" x1="398.1" y1="201.2" x2="398.1" y2="215.6"/>
	<line class="st3" x1="421.1" y1="200.3" x2="421.1" y2="215.6"/>
	<line class="st3" x1="402.6" y1="196.6" x2="402.6" y2="215.6"/>
	<line class="st3" x1="416.3" y1="195.7" x2="416.3" y2="215.6"/>
	<line class="st3" x1="407.5" y1="193.7" x2="407.5" y2="215.6"/>
	<line class="st3" x1="412.1" y1="194.1" x2="412.1" y2="215.9"/>
	<path class="st3" d="M391.3,306.6c1.7,1.2,4.1,4.9,4.9,4.3c0.9-0.6,26.4,0,26.4,0l4.6-4.3"/>
	<rect x="398.1" y="310.7" class="st2" width="6" height="9.8"/>
	<rect x="415" y="311.1" class="st2" width="6" height="9.8"/>
	<polygon class="st10" points="268.1,344.9 271.2,344.9 271.2,344.9 268.1,344.9 	"/>
	<g>
		<g>
			<path d="M476,224.1c1.5,1.6,3.3,3.2,5.6,3.4c0.7,0.1,1.5,0,2.2,0c1.4-0.1,2.7-0.1,4.1-0.1c5.3,0,10.5,0,15.8,0
				c11.7,0,23.4,0.1,35.1,0.2c1.4,0,2.9,0,4.3,0c2,0,4.1-1,5.9-1.7c0.7-0.3,0.4-1.5-0.3-1.2c-1.7,0.6-3.6,1.5-5.4,1.6
				c-1.1,0-2.2,0-3.2,0c-4.8,0-9.6,0-14.4-0.1c-11.8-0.1-23.6-0.1-35.4-0.1c-1.9,0-3.7,0-5.6,0.1c-0.4,0-0.9,0-1.3,0.1
				c-2.7,0.2-4.5-1.1-6.3-3C476.3,222.6,475.4,223.5,476,224.1L476,224.1z"/>
		</g>
	</g>
	
		<rect x="481.9" y="226.9" transform="matrix(-1 -1.224647e-16 1.224647e-16 -1 1026.5515 457.7634)" class="st11" width="62.8" height="3.9"/>
	<path class="st5" d="M450.2,239.3c3.4,0.2,14.3,0.9,18.6,0c4.3-0.9,12.3-8.5,12.3-8.5h63.7c0,0,7,9.2,16,9.8c9,0.7,15.3-1,15.3-1
		s1.5,8.6-19.6,8.6c-16.5,0-71.7,1.1-92.1-1.7c-4.6-0.6-8.9-2.6-12.4-5.7L450.2,239.3z"/>
	<path class="st12" d="M454.8,243.1c5.9,4.9,17.7,11.9,17.7,11.9l82.4,0c0,0,18.6-10,15.5-8.8c-10,3.9-94.4,2.8-107.3,0.2"/>
	<rect x="480.2" y="255" class="st11" width="67.2" height="9.2"/>
	<rect x="484.9" y="254.8" width="2.4" height="5.8"/>
	<rect x="498.9" y="255" width="1.7" height="5.6"/>
	<rect x="510.8" y="255" width="4.8" height="9.2"/>
	<rect x="526.3" y="255" width="2" height="5.6"/>
	<rect x="539.2" y="254.8" width="2.6" height="5.8"/>
	<rect x="472.7" y="263.4" width="81.7" height="6.5"/>
	<polygon class="st12" points="478.8,270 478.8,305.4 500.6,305.4 500.6,278.6 526.3,278.6 526.3,305.4 547.4,305.4 547.4,270 	"/>
	<rect x="476.4" y="305.4" class="st11" width="73.5" height="3.4"/>
	<rect x="474.4" y="309.1" class="st12" width="77.3" height="4.1"/>
	<rect x="472.3" y="313.2" class="st11" width="82.6" height="4.1"/>
	<rect x="469.9" y="317.7" class="st12" width="87.3" height="4.1"/>
	<g>
		<path d="M210.1,64.3c0-6.3-0.1-12.1-0.1-18.1c-5.1,2.8-9.8,5.4-14.6,7.9c-1.3,0.7-2.8,1.1-4.2,1.3c-1,0.1-2.5,0-3-0.7
			c-2.2-2.9-4.1-6-6-9.2c-0.1-0.1,1.4-1.6,1.9-1.5c1.6,0.4,3.1,1.2,4.6,2c2,1.2,3.6,1.3,5.7-0.1c9-6.1,18.2-11.9,27.3-17.9
			c3.2-2.1,6.6-3.6,10.6-2.3c2.7,0.9,3.1,2.1,0.9,3.9c-3.5,2.9-7.3,5.4-10.8,8.3c-1.1,0.9-2.2,2.3-2.6,3.6c-1.5,5-2.7,10.2-4,15.2
			C214.9,59.8,213.7,62.5,210.1,64.3z"/>
		<path d="M209.6,33.8c-2.1,1.4-4.2,2.8-6.4,4.1c-0.5,0.3-1.4,0.3-1.9,0.1c-2.9-1.2-5.7-2.5-9.1-4c5.9-4.8,11.7-0.6,17.2-1
			C209.4,33.3,209.5,33.6,209.6,33.8z"/>
	</g>
</g>
</svg>
