<?xml version="1.0" encoding="utf-8"?>
<!-- Generator: Adobe Illustrator 24.1.2, SVG Export Plug-In . SVG Version: 6.00 Build 0)  -->
<svg version="1.1" baseProfile="tiny" id="Layer_1" xmlns="http://www.w3.org/2000/svg" xmlns:xlink="http://www.w3.org/1999/xlink"
	 x="0px" y="0px" viewBox="0 0 56.69 56.69" overflow="visible" xml:space="preserve">
<g>
	<path fill="#020203" d="M6.59,21.11v-2.09h1.25v2.09h2.09v-2.09h1.25v4.18h0.42v1.25h-0.42c-0.84,0-1.25-0.42-1.25-1.25v-0.84H7.85
		v2.09H6.59v-2.09H6.18v-1.25H6.59z"/>
	<path fill="#020203" d="M16.63,19.02v5.43h-1.25v0l-2.09,0h-1.25v-5.43H16.63z M13.28,20.28v2.93l2.09,0v-2.92H13.28z"/>
	<path fill="#020203" d="M18.72,23.2c0,0.84-0.42,1.25-1.25,1.25h-0.42V23.2h0.42v-2.93h-0.42v-1.25h2.51V18.6h1.25v0.42h2.51v1.25
		H22.9v2.93h0.42v1.25H22.9c-0.84,0-1.25-0.42-1.25-1.25v-2.93h-0.84v2.09h-1.25v-2.09h-0.84V23.2z"/>
	<path fill="#020203" d="M25.4,21.11h2.51v1.25H25.4c0,0.56,0.28,0.84,0.84,0.84h2.51v1.25h-2.51c-1.39,0-2.09-0.7-2.09-2.09h-0.42
		v-1.25h0.42v-0.84h-0.42v-1.25h5.02v1.25H25.4V21.11z"/>
	<path fill="#020203" d="M31.71,21.11v-2.09h4.6v2.09c0,0.84-0.42,1.25-1.25,1.25h-2.09v2.09h-1.25v-2.09h-0.42v-1.25H31.71z
		 M32.96,20.28v0.84h2.09v-0.84H32.96z"/>
	<path fill="#020203" d="M38.81,19.02V18.6h1.25v0.42h2.09v1.25h-0.42v2.93h0.42v1.25h-0.42c-0.84,0-1.25-0.42-1.25-1.25v-0.84
		h-2.09v0.84c0,0.84-0.42,1.25-1.25,1.25h-0.42V23.2h0.42v-2.93h-0.42v-1.25H38.81z M40.48,20.28h-2.09v0.84h2.09V20.28z"/>
	<path fill="#020203" d="M45.08,19.02v3.34c0,1.39-0.7,2.09-2.09,2.09h-0.42V23.2h0.42c0.56,0,0.84-0.28,0.84-0.84v-2.09h-1.25
		v-1.25H45.08z"/>
	<path fill="#020203" d="M47.17,21.11h2.51v1.25h-2.51c0,0.56,0.28,0.84,0.84,0.84h2.51v1.25h-2.51c-1.39,0-2.09-0.7-2.09-2.09H45.5
		v-1.25h0.42v-0.84H45.5v-1.25h5.02v1.25h-3.34V21.11z"/>
</g>
</svg>
