<?xml version="1.0" encoding="utf-8"?>
<!-- Generator: Adobe Illustrator 24.1.2, SVG Export Plug-In . SVG Version: 6.00 Build 0)  -->
<svg version="1.1" baseProfile="tiny" id="Layer_1" xmlns="http://www.w3.org/2000/svg" xmlns:xlink="http://www.w3.org/1999/xlink"
	 x="0px" y="0px" viewBox="0 0 155.81 120" overflow="visible" xml:space="preserve">
<path fill="#908F90" d="M20.79,89.85C12.13,89.22,1.75,78.58,17.21,68s26.17-18.35,65.32,9.82c18.1,3.63,38.61-0.05,38.33,12.58
	c-0.28,12.63-39.18,33.73-56.63,17.39S20.79,89.85,20.79,89.85z"/>
<rect x="46.59" y="81.18" fill="#010202" width="0.28" height="1.22"/>
<rect x="47.85" y="80.9" fill="#010202" width="0.28" height="1.5"/>
<rect x="49.82" y="80.66" fill="#010202" width="0.52" height="1.92"/>
<rect x="50.81" y="80.66" fill="#010202" width="0.26" height="1.11"/>
<rect x="51.51" y="80.61" fill="#010202" width="0.26" height="2.1"/>
<rect x="52.66" y="80.57" fill="#010202" width="0.26" height="2.1"/>
<rect x="53.87" y="80.72" fill="#010202" width="0.26" height="2.1"/>
<rect x="54.5" y="80.66" fill="#010202" width="0.26" height="2.1"/>
<rect x="55.32" y="80.66" fill="#010202" width="0.26" height="2.1"/>
<rect x="56.54" y="80.66" fill="#010202" width="0.26" height="2.1"/>
<rect x="59.49" y="80.72" fill="#010202" width="0.26" height="2.1"/>
<rect x="60.07" y="80.72" fill="#010202" width="0.26" height="2.1"/>
<rect x="63.93" y="80.66" fill="#010202" width="0.26" height="2.1"/>
<rect x="71.86" y="80.31" fill="#010202" width="0.62" height="1.88"/>
<rect x="73.07" y="80.16" fill="#010202" width="0.84" height="1.88"/>
<rect x="74.22" y="80.16" fill="#010202" width="0.84" height="1.88"/>
<rect x="75.99" y="80.02" fill="#010202" width="0.63" height="1.69"/>
<rect x="77.19" y="80.08" fill="#010202" width="0.63" height="1.69"/>
<rect x="78.64" y="80.02" fill="#010202" width="0.63" height="1.69"/>
<rect x="79.81" y="79.91" fill="#010202" width="0.91" height="1.69"/>
<rect x="81.3" y="79.84" fill="#010202" width="0.68" height="1.69"/>
<rect x="82.47" y="79.78" fill="#010202" width="0.68" height="1.69"/>
<rect x="86.28" y="79.65" fill="#010202" width="0.68" height="1.69"/>
<rect x="83.63" y="79.64" fill="#010202" width="0.68" height="1.69"/>
<rect x="85.03" y="79.64" fill="#010202" width="0.68" height="1.69"/>
<rect x="66.87" y="80.77" fill="#010202" width="1.13" height="2.1"/>
<rect x="65.06" y="80.72" fill="#010202" width="0.59" height="2.1"/>
<rect x="69.19" y="80.56" fill="#010202" width="0.59" height="1.49"/>
<rect x="70.4" y="80.49" fill="#010202" width="0.59" height="1.22"/>
<rect x="62.41" y="80.66" fill="#010202" width="0.9" height="2.1"/>
<rect x="60.92" y="80.66" fill="#010202" width="0.92" height="2.1"/>
<rect x="57.98" y="80.72" fill="#010202" width="0.92" height="2.1"/>
<rect x="57.08" y="80.66" fill="#010202" width="0.62" height="2.1"/>
<rect x="48.53" y="80.25" fill="#010202" width="0.59" height="1.91"/>
<polygon fill="#010202" points="97.27,79.37 97.79,80.1 105.72,79.84 105.61,79.22 "/>
<polygon fill="#908F90" points="123.73,67.02 123.68,73.81 128.89,73.81 128.89,67.82 "/>
<polygon fill="#908F90" points="100.94,68.53 100.94,73.97 122.82,73.97 122.74,67.02 100.68,67.24 "/>
<polygon fill="#010202" points="100.13,75.19 100.13,78.7 123.12,78.7 123.12,74.39 "/>
<polygon fill="#010202" points="123.68,74.42 123.73,78.7 135.17,77.32 135.17,73.97 "/>
<path fill="#E52A24" d="M98.99,62.69c0.81,0.57-0.78,2.64-0.72,3.52h24.68c0,0,0.46-2.76,0.63-3.77L98.99,62.69z"/>
<path fill="#010202" d="M98.27,61.62l25.41,0.25c0,0-0.68-1.73-0.68-3.05c0-0.22-21.59-0.05-21.59-0.05S100.57,61.37,98.27,61.62z"
	/>
<polygon fill="#969696" points="104.66,53.71 104.99,58.36 123.12,58.11 122.74,53.92 "/>
<path fill="#010202" d="M50.4,25.46c0.17,2.85,0.17,2.85,0.17,2.85s9.54,12.73,19.17,17.33s25.95,12.56,38.43,12.14
	c-3.43-3.85-16.49-12.98-16.49-12.98h0.92l0.08-2.51L50.4,25.46z"/>
<path fill="#E52421" d="M68.45,46.6c2.23,2.25,33.19,13.14,39.87,12.45c-5.79,2.98-40.12-7.3-39.93-7.87L68.45,46.6z"/>
<path fill="#E52421" d="M49.61,27.65c0.02,0.05,0.05,0.11,0.08,0.17c1.67,3.25,11.7,15.47,14.4,15.72c1.57,0.15-28.04,8.2-28.04,8.2
	C46.43,44.32,49.61,27.65,49.61,27.65z"/>
<path fill="#E52421" d="M32.3,59.55c0,0-5.99-1.07-7.37-4.21c4.02,1.32,24.3,1.38,42.7-8.75c0,0.96-0.09,4.32-0.09,4.32
	C66.84,51.56,46.36,58.8,32.3,59.55z"/>
<path fill="#010202" d="M24.11,53.45l1.87,0.28c1.28,0.19,2.48-0.7,2.65-1.99v0c0,0,8.23,3.41,36.61-7.7c1.32,0.75,1.52,1.13,2.32,1
	c0.81-0.12-6.47,3.64-11.55,5.02s-19.53,5.21-23.23,5.15C29.08,55.16,25.68,55.15,24.11,53.45z"/>
<polygon fill="#010202" points="65.68,53.87 65.68,79.21 68.45,79.21 67.88,51.39 "/>
<polygon fill="#010202" points="69.01,63.19 69.01,64.58 101.98,67.02 101.98,65.11 "/>
<polygon fill="#010202" points="36.04,66.04 36.05,68.03 64.62,65.49 64.62,63.82 "/>
<path fill="#010202" d="M36.05,60.23c0.13,5.09,0,18.19,0,18.19l1.32-0.16V60.11L36.05,60.23z"/>
<polygon fill="#010202" points="40.88,59.63 40.88,78.61 42.26,78.61 42.26,59.39 "/>
<polygon fill="#010202" points="48.42,58.53 48.42,79.21 49.48,79.21 49.48,57.69 "/>
<polygon fill="#010202" points="55.66,56.64 56.09,79.09 57.53,79.09 57.29,55.22 "/>
<path fill="#010202" d="M76.98,57.79"/>
<polygon fill="#010202" points="76.71,54.65 76.98,79.21 78.3,79.21 78.13,55.73 "/>
<polygon fill="#010202" points="84.61,56.7 84.87,78.33 86.12,78.33 86.12,57.68 "/>
<polygon fill="#010202" points="92.66,58.36 92.66,78.7 93.69,78.7 93.69,58.94 "/>
<polygon fill="#010202" points="97.46,59.12 97.36,78.49 97.99,78.49 97.99,59.35 "/>
<polygon fill="#010202" points="101.29,59.54 101.29,78.49 101.82,78.49 101.98,59.54 "/>
<polygon fill="#E52421" points="31.15,79.21 34.98,78.61 68.6,79.26 68.39,80.62 "/>
<polygon fill="#E52421" points="28.3,83.73 28.63,82.4 67.68,83.16 67.38,85.05 "/>
<polygon fill="#E52421" points="68.45,79.21 68.39,80.62 87.72,79.63 87.47,78.42 "/>
<polygon fill="#E52421" points="67.38,83.19 67.38,85.05 88.35,83.62 88.08,82.41 "/>
<polygon fill="#E52421" points="96.07,78.49 96.61,79.08 105.81,79.08 105.81,78.14 "/>
<polygon fill="#E52421" points="98.33,80.72 98.76,81.31 106.15,81.31 106.15,80.37 "/>
<polygon fill="#010202" points="87.47,78.42 88.35,83.62 92.93,85.05 93.18,83.37 "/>
<polygon fill="#010202" points="88.16,79.02 88.57,79.37 95.09,79.37 94.96,78.7 "/>
<polygon fill="#010202" points="89.57,80.24 89.57,81.31 96.64,80.84 96.51,79.67 "/>
<polygon fill="#010202" points="91.18,81.86 91.28,82.2 97.79,81.86 97.68,81.45 "/>
<polygon fill="#010202" points="96.07,78.49 99.28,81.82 99.28,83.1 93.96,78.75 "/>
<path fill="#010202" d="M92.53,27.28c-0.49-0.46,11.38,2.55,19.58-5.57c2.6-1.17,2.6-1.17,2.6-1.17s8.22,5.1,13.27,4.31
	C126.05,28.7,97.05,31.53,92.53,27.28z"/>
<path fill="#E52A24" d="M122.07,35.88l-18.59,1.1L93.31,29.1c0,0,26.31,3.31,33.97-3.14"/>
<path fill="#E52A24" d="M128.04,25.96c1.63,7.66,4.71,6.72,4.71,6.72l-6.53,6.17l-3.47-2.47"/>
<polygon fill="#969696" points="104.28,38.06 104.28,43.29 122.74,43 122.74,37.39 "/>
<polygon fill="#969696" points="123.41,37.72 123.41,43.01 125.63,43.01 125.84,39.09 "/>
<path fill="#010202" d="M96.79,46.6c1.59-0.54,5.94-1.59,6.15-2.76c3.56,0.13,19.8,0,19.8,0s0.75,2.88,2.3,2.97
	C126.59,46.89,96.79,46.6,96.79,46.6z"/>
<polygon fill="#E52A24" points="97.33,47.73 104.66,53.23 122.91,53.23 125.1,47.73 "/>
<polygon fill="#E52A24" points="125.52,48.19 123.73,53.23 128.04,54.78 131.43,51.29 "/>
<path fill="#010202" d="M123.73,43.83c0,0.3,1.16,2.59,1.68,2.98l6.71,2.94l1.35-1.1L123.73,43.83z"/>
<polygon fill="#969696" points="123.61,53.91 123.89,57.95 129.31,58.72 128.04,55.22 "/>
<polygon fill="#010202" points="35.82,82.61 37.71,82.53 40.29,79.37 38.43,79.4 "/>
<polyline fill="#010202" points="113.78,21.19 113.31,19.63 111.86,21.07 "/>
<polyline fill="#010202" points="113.4,21.34 113.4,19.72 116.65,20.86 "/>
<path fill="#010202" d="M113.39,3.17c0,0-1.11,0.36-0.76,0.6s0.25,0.48,0.78,0.36S113.39,3.17,113.39,3.17z"/>
<polygon fill="#010202" points="113.1,5.87 113.1,4.55 113.39,4.55 113.4,5.57 "/>
<path fill="#010202" d="M112.63,6.35c0.04,0.18,0,1.74,0,1.74l1.36,0.3V6.35H112.63z"/>
<path fill="#010202" d="M112.49,9.24c-0.06,0.3,0,0.84,0,0.84l1.5-0.42V9.24H112.49z"/>
<polygon fill="#010202" points="112.49,10.5 112.46,11.22 114.25,11.22 114.25,10.5 "/>
<polygon fill="#010202" points="112.56,11.64 112.56,12.36 114.25,12.36 113.99,11.64 "/>
<polygon fill="#010202" points="112.56,13.14 112.56,13.93 114.25,13.93 113.99,13.14 "/>
<polygon fill="#010202" points="112.56,15.01 112.56,15.79 114.25,15.79 114.25,14.77 "/>
<polygon fill="#010202" points="112.63,16.45 112.63,17.35 114.59,17.59 114.25,17.02 "/>
<polygon fill="#010202" points="112.56,18.49 112.56,18.91 114.25,18.91 114.25,18.31 "/>
<g>
	<line fill="#010202" x1="113.1" y1="4.15" x2="113.4" y2="20.3"/>
	<rect x="113" y="4.15" transform="matrix(0.9998 -0.0189 0.0189 0.9998 -0.2106 2.1396)" width="0.5" height="16.14"/>
</g>
<path fill="#E52A24" d="M124.54,62.66l-0.96,3.42l5.07,0.94c0,0,2.21-1.71,3.64-2.5C132.81,64.24,124.54,62.66,124.54,62.66z"/>
<path fill="#010202" d="M123.73,58.61c0,0,0.2,3.47,1.06,3.47s9.07,1.97,9.07,1.97l2.8-0.86c0,0-7.37-3.06-7.79-3.66
	C128.46,58.94,123.73,58.61,123.73,58.61z"/>
</svg>
