<?xml version="1.0" encoding="utf-8"?>
<!-- Generator: Adobe Illustrator 22.1.0, SVG Export Plug-In . SVG Version: 6.00 Build 0)  -->
<svg version="1.1" id="Layer_1" xmlns="http://www.w3.org/2000/svg" xmlns:xlink="http://www.w3.org/1999/xlink" x="0px" y="0px"
	 viewBox="0 0 1072 603" style="enable-background:new 0 0 1072 603;" xml:space="preserve">
<style type="text/css">
	.st0{fill:#070808;}
	.st1{fill:#FFFFFF;}
</style>
<g id="Group_3" transform="translate(394.755 -150.399)">
	<path id="Path_45" class="st0" d="M-458.2,754.4c17-28,257.7-61.8,257.7-61.8S-77.8,662-54.3,640.6c9.4-4.9,32.7-8.7,48.6-35
		c18-11.7,17.4-20.4,33.4-27.2c8.7-5.8,6-2.9,13.4-7.8c4.7-3.2,9.2-6.8,13.4-10.7c0,0,3.3,1,17.4,0s145-77.8,216.5-152.6
		c8-5.8,20.7-3.9,26.1-9.7c5.3-5.8,16-1.9,20.7,3.9c4.7-1.9,11.4,1,20.7,12.6l15.4,6.8l62.8,48.6l80.9,54.4c0,0,15.3,18.5,24,23.3
		s11.3,21.4,20,24.3s67.7,42,67.7,42s57.1,32.3,65.1,42.6c12.2,15.5,90.7,51.4,99.9,64.3c6.9,9.7,114.6,33.9,114.6,33.9
		L-458.2,754.4z"/>
	<path id="Path_46" class="st1" d="M162.4,514.6c3.6-0.9,3.6-1.7,3.6-1.7s-12.6,13-7.2,9.6l5.4-3.5L151,532.9l34.8-25.2l-4.8,7.8
		l12-7.8l5.4-3.5l-3.6,6.1l-12,18.2l27.6-21.7l12-9.6l-4.2,15.6l18-23.5v6.1l-9,29.5l15-15.6l6-10.4l3-6.1l-3.6,13l16.8-16.5
		l-9.6,32.1l15.6-21.7l3-1.7l6-7l7.2,1.7l1.8,13c0,0,2.4-6.1,5.4-9.6c3-3.5,13.7,13.9,13.7,13.9s-5.3-13.9-4.1-7.8s3,14.8,1.8,17.4
		l-1.2,2.6c0,0,4.8-6.1,3-12.2s0-15.6,0-15.6l2.4-0.9c0,0,3,5.2,4.2,9.6l1.2,4.3c0,0-1.2,4.3-0.6,12.2c0.6,7.8,0.6,12.2,0.6,12.2
		l3-11.3l1.8-6.1h4.2l5.4-10.4l24,20c0,0-17.4-20.8-16.8-25.2l0.6-4.3c0,0,1.8-13,4.8-5.2s1.2,18.2,1.2,18.2l3-10.4v-9.6
		c0,0,3.6-7.8,7.2-0.9s13.8,33,13.8,33l1.8,4.3v-22.6l9,19.1V499c0,0,7.8,13,9,22.6c1.2,9.6,1.2,6.1,1.2,6.1v-16.5l6.6,13l-2.4-15.6
		l-5.4-11.3l2.4,0.9v-4.3l34.8,29.5l-15-21.7l1.2-7l2.4-0.9l13.2,9.6l12.6,11.3l3,3.5l-6.6-15.6l24.6,15.6l-1.2-5.2l-1.3-14.2
		l34.2,44.4l-12.6-28.1l-2-9.4l34.5,18.5L341,406.1c-2.4,0.5-4.8,0.5-7.2,0c-3.6-0.9-4.8-6.1-9.6-6.1h-4.8l-11.4,8.7l-9-0.9
		L162.4,514.6z"/>
</g>
</svg>
