<?xml version="1.0" encoding="utf-8"?>
<!-- Generator: Adobe Illustrator 24.1.2, SVG Export Plug-In . SVG Version: 6.00 Build 0)  -->
<svg version="1.1" baseProfile="tiny" id="Layer_1" xmlns="http://www.w3.org/2000/svg" xmlns:xlink="http://www.w3.org/1999/xlink"
	 x="0px" y="0px" viewBox="0 0 56.69 56.69" overflow="visible" xml:space="preserve">
<g>
	<path d="M24.47,27.87c0,1.6-0.8,2.41-2.41,2.41h-0.8v-2.41h0.8v-5.62h-3.21v-2.41h8.83v2.41h-3.21V27.87z"/>
	<path d="M31.69,27.87c0,1.6-0.8,2.41-2.41,2.41h-0.8v-2.41h0.8v-8.02h2.41V27.87z"/>
	<path d="M37.3,19.85v6.42c0,2.67-1.34,4.01-4.01,4.01h-0.8v-2.41h0.8c1.07,0,1.6-0.53,1.6-1.6v-4.01h-2.41v-2.41H37.3z"/>
	<path d="M41.32,27.87c0,1.6-0.8,2.41-2.41,2.41h-0.8v-2.41h0.8v-8.02h2.41V27.87z"/>
</g>
</svg>
