<?xml version="1.0" encoding="utf-8"?>
<!-- Generator: Adobe Illustrator 24.1.2, SVG Export Plug-In . SVG Version: 6.00 Build 0)  -->
<svg version="1.1" id="Layer_1" xmlns="http://www.w3.org/2000/svg" xmlns:xlink="http://www.w3.org/1999/xlink" x="0px" y="0px"
	 viewBox="0 0 155.8 203.9" style="enable-background:new 0 0 155.8 203.9;" xml:space="preserve">
<style type="text/css">
	.st0{fill:#757575;}
	.st1{fill:#040505;}
	.st2{fill:#DA0E15;}
	.st3{fill:#B8A5A7;}
	.st4{fill:#DB0D19;}
	.st5{fill:#0F0F0F;}
	.st6{fill:#DB0D16;}
	.st7{fill:#0A0B0B;}
	.st8{fill:#060708;}
	.st9{fill:none;stroke:#161615;stroke-miterlimit:10;}
</style>
<path id="Path_4" class="st0" d="M22.3,165.7c-10.5-0.8-23.1-13.6-4.3-26.5S49.6,117,97,151.1c21.9,4.4,46.8-0.1,46.4,15.2
	S96,207.2,74.9,187.4S22.3,165.7,22.3,165.7z"/>
<path id="Path_5" class="st1" d="M78.9,40.2v2.6l3.5-1.3v-3.2L78.9,40.2z"/>
<path id="Path_6" class="st1" d="M88.7,40.6v2.2l-6.3-1.3v-3.2L88.7,40.6z"/>
<path id="Path_7" class="st1" d="M82.4,41.5c-0.2,2.5,1.2,5-3.5,3.9c-3,2.8-24.3,15.5-30,14.3C61.3,55,76.1,46.1,77.5,44.4
	C78.9,42.8,82.4,41.5,82.4,41.5z"/>
<path id="Path_8" class="st1" d="M88.7,42.8c0,0,26.2,14.3,33,12.4c-8.3,2.3-32.3-2.9-41.1-9.5c1.2-0.8,2.2-1.8,3.2-2.9H88.7z"/>
<path id="Path_9" class="st2" d="M70.1,67.8c-0.7,0-16.1-1.6-20.3-7c7.3-0.7,26.4-10.1,30-13.4c0.2,8.4,0,15,0,15L70.1,67.8z"/>
<path id="Path_10" class="st2" d="M80.7,47.5v14.9l20.5,3.4c0,0,22.7-8,18.9-8.2C116.4,57.3,89.9,55,80.7,47.5z"/>
<path id="Path_11" class="st3" d="M70.2,68.5l-2.5,3.6l12.1-6v-3L70.2,68.5z"/>
<path id="Path_12" class="st3" d="M80.7,63.2v2.8l21.5,4.9L101,67L80.7,63.2z"/>
<path id="Path_13" class="st4" d="M69,87.5l11.4-5.3l-0.5-11.4c0,0-27,10-32.9,9.6C41.2,79.9,69,87.5,69,87.5z"/>
<path id="Path_14" class="st4" d="M80.9,70.8l0.6,11.6l22.3,4.4l19.6-10.1L80.9,70.8z"/>
<path id="Path_15" class="st1" d="M46.7,78.4c0,0,15-2.3,33.1-11.1c-0.1,0.6-0.1,1.3,0,1.9C80.6,68.9,51.8,79.8,46.7,78.4z"/>
<path id="Path_16" class="st1" d="M123.7,74.6c0,0-23-2.4-43.1-7.3c0.2,0.6,0.3,1.2,0.3,1.9C80.9,69.1,118,77,123.7,74.6z"/>
<path id="Path_17" class="st3" d="M69.1,88.2l-2,2.6l13.4-3.2l-0.2-4L69.1,88.2z"/>
<path id="Path_18" class="st3" d="M81.6,83.5v4l26.5,3.4l-4.1-3.2L81.6,83.5z"/>
<path id="Path_19" class="st5" d="M44.3,100.4c-1.3,0.1,12.9-5.4,18.4-7.7c3.6-0.7,17.7-4.2,17.7-4.2s1,2.1-0.9,2.5
	C75,91.7,48.9,100,44.3,100.4z"/>
<path id="Path_20" class="st5" d="M81.6,88.5v2.5c0,0,31.4,8.1,45.1,4.7c-2.7-0.9-17.6-2.6-17.6-2.6L81.6,88.5z"/>
<path id="Path_21" class="st6" d="M80.6,91.7c0,0-32.9,9.8-34.5,9.7c-1.7-0.1,20,5.3,20.4,5.2c2.1-0.9,14.1-5.4,14.1-4.2V91.7z"/>
<path id="Path_22" class="st6" d="M81.6,91.7v10.4l20.9,2.5c0,0,21.5-6.6,21.6-6.4C124.1,98.3,84.9,94.1,81.6,91.7z"/>
<path id="Path_23" class="st3" d="M66.7,107.8c0,0-3,5.5-3.5,5.8c-0.5,0.3,16.8-3.8,16.8-3.8l-0.3-6.6L66.7,107.8z"/>
<path id="Path_24" class="st3" d="M81.6,103.3v6.3l23.1,2.4l-2.5-5.3L81.6,103.3z"/>
<path id="Path_25" class="st7" d="M80.1,110.9c0,0-30.6,8.7-37.1,8.3c0.6,2.5,26.5,0.8,37.5-1.6C80.5,115.4,80.4,113.1,80.1,110.9z"
	/>
<path id="Path_26" class="st7" d="M81.7,110.9v6.2c0,0,39.6,3.9,48.6-0.1C130,115.4,81.7,110.9,81.7,110.9z"/>
<path id="Path_27" class="st6" d="M45.6,122c0.3,0,20.1,4.9,20.1,4.9s15.7-2.5,15.3-2.5s-0.3-5.5-0.3-5.5L45.6,122z"/>
<path id="Path_28" class="st6" d="M81.7,119.2v5.3l25,2.3l16-4.9L81.7,119.2z"/>
<path id="Path_29" class="st3" d="M65.5,128.3l-2.9,5.8l18.1,0.1v-7L65.5,128.3z"/>
<path id="Path_30" class="st3" d="M82.4,126.9c0.2,0.7,0,7,0,7h27.2l-3.7-4.7L82.4,126.9z"/>
<path id="Path_31" class="st8" d="M82.4,134.7v4.2l51.2,1.3l2.1-3c0,0-18.6-2.6-19.1-2.5C116.2,134.8,82.4,134.7,82.4,134.7z"/>
<path id="Path_32" class="st8" d="M80.7,135.2l-0.6,5L55.8,139l-7.5-3.9c0,0,5.6-0.1,6.1,0C54.9,135.3,80.7,135.2,80.7,135.2z"/>
<path id="Path_33" class="st3" d="M82.6,142.1c0,0.4,0.7,17.2,0.7,17.2l28.4-6.2l-0.2-11H82.6z"/>
<path id="Path_34" class="st3" d="M57.8,142.1h22l1,17.2l-23-4C57.8,155.3,57.8,142.1,57.8,142.1z"/>
<path id="Path_35" class="st1" d="M82.4,6.2c0,0-2.2,0.7-1.5,1.2s0.5,0.9,1.5,0.7C83.5,7.8,82.4,6.2,82.4,6.2z"/>
<path id="Path_36" class="st1" d="M81.8,11.4V8.9h0.6l0,2L81.8,11.4z"/>
<path id="Path_37" class="st1" d="M80.9,12.4c0.1,0.4,0,3.4,0,3.4l2.7,0.6v-4L80.9,12.4z"/>
<path id="Path_38" class="st1" d="M80.7,18c-0.1,0.5-0.1,1.1,0,1.6l2.9-0.8V18H80.7z"/>
<path id="Path_39" class="st1" d="M80.7,20.4l-0.1,1.4h3.5v-1.4H80.7z"/>
<path id="Path_40" class="st1" d="M80.8,22.7v1.4h3.3l-0.5-1.4H80.8z"/>
<path id="Path_41" class="st1" d="M80.8,25.6v1.5h3.3l-0.5-1.5H80.8z"/>
<path id="Path_42" class="st1" d="M80.8,29.2v1.5h3.3v-2L80.8,29.2z"/>
<path id="Path_43" class="st1" d="M80.9,32v1.8l3.8,0.5l-0.7-1.1L80.9,32z"/>
<path id="Path_44" class="st1" d="M80.8,36v0.8h3.3v-1.2L80.8,36z"/>
<line id="Line_4" class="st9" x1="81.8" y1="8.1" x2="82.4" y2="39.5"/>
</svg>
